<mxfile host="app.diagrams.net" modified="2021-04-22T17:18:27.812Z" agent="5.0 (Macintosh; Intel Mac OS X 10_15_6) AppleWebKit/537.36 (KHTML, like Gecko) Chrome/89.0.4389.114 Safari/537.36" etag="AZ-nkO2jZY3tjvdamUu3" version="14.6.6" type="github">
  <diagram id="kSlXH5EdO3-6hjxo-Fiu" name="Page-1">
    <mxGraphModel dx="1426" dy="794" grid="1" gridSize="10" guides="1" tooltips="1" connect="1" arrows="1" fold="1" page="1" pageScale="1" pageWidth="827" pageHeight="1169" math="0" shadow="0">
      <root>
        <mxCell id="0" />
        <mxCell id="1" parent="0" />
        <mxCell id="HczRDZ3FsVmqrejHdPLE-1" value="" style="rounded=0;whiteSpace=wrap;html=1;fillColor=#dae8fc;strokeColor=#6c8ebf;" vertex="1" parent="1">
          <mxGeometry x="510" y="280" width="300" height="360" as="geometry" />
        </mxCell>
        <mxCell id="xbVEstwkcW1VQXTJNAXk-52" value="" style="rounded=0;whiteSpace=wrap;html=1;fillColor=#d5e8d4;strokeColor=#82b366;" parent="1" vertex="1">
          <mxGeometry x="170" y="230" width="320" height="330" as="geometry" />
        </mxCell>
        <mxCell id="xbVEstwkcW1VQXTJNAXk-50" value="" style="rounded=0;whiteSpace=wrap;html=1;fillColor=#dae8fc;strokeColor=#6c8ebf;" parent="1" vertex="1">
          <mxGeometry x="490" y="10" width="320" height="220" as="geometry" />
        </mxCell>
        <mxCell id="xbVEstwkcW1VQXTJNAXk-48" value="" style="rounded=0;whiteSpace=wrap;html=1;fillColor=#ffe6cc;strokeColor=#d79b00;" parent="1" vertex="1">
          <mxGeometry x="20" y="20" width="450" height="210" as="geometry" />
        </mxCell>
        <mxCell id="xbVEstwkcW1VQXTJNAXk-3" style="edgeStyle=orthogonalEdgeStyle;rounded=0;orthogonalLoop=1;jettySize=auto;html=1;" parent="1" source="xbVEstwkcW1VQXTJNAXk-1" target="xbVEstwkcW1VQXTJNAXk-2" edge="1">
          <mxGeometry relative="1" as="geometry" />
        </mxCell>
        <mxCell id="xbVEstwkcW1VQXTJNAXk-14" style="edgeStyle=orthogonalEdgeStyle;rounded=0;orthogonalLoop=1;jettySize=auto;html=1;entryX=0;entryY=0.75;entryDx=0;entryDy=0;" parent="1" source="xbVEstwkcW1VQXTJNAXk-1" target="xbVEstwkcW1VQXTJNAXk-13" edge="1">
          <mxGeometry relative="1" as="geometry">
            <Array as="points">
              <mxPoint x="120" y="285" />
            </Array>
          </mxGeometry>
        </mxCell>
        <mxCell id="xbVEstwkcW1VQXTJNAXk-26" style="edgeStyle=orthogonalEdgeStyle;rounded=0;orthogonalLoop=1;jettySize=auto;html=1;" parent="1" source="xbVEstwkcW1VQXTJNAXk-1" target="xbVEstwkcW1VQXTJNAXk-24" edge="1">
          <mxGeometry relative="1" as="geometry">
            <Array as="points">
              <mxPoint x="100" y="380" />
            </Array>
          </mxGeometry>
        </mxCell>
        <mxCell id="xbVEstwkcW1VQXTJNAXk-1" value="Frontend App" style="rounded=0;whiteSpace=wrap;html=1;" parent="1" vertex="1">
          <mxGeometry x="50" y="130" width="120" height="60" as="geometry" />
        </mxCell>
        <mxCell id="xbVEstwkcW1VQXTJNAXk-10" style="edgeStyle=orthogonalEdgeStyle;rounded=0;orthogonalLoop=1;jettySize=auto;html=1;" parent="1" source="xbVEstwkcW1VQXTJNAXk-2" target="xbVEstwkcW1VQXTJNAXk-9" edge="1">
          <mxGeometry relative="1" as="geometry" />
        </mxCell>
        <mxCell id="xbVEstwkcW1VQXTJNAXk-2" value="OICD-client" style="rounded=0;whiteSpace=wrap;html=1;fillColor=#f8cecc;strokeColor=#b85450;" parent="1" vertex="1">
          <mxGeometry x="200" y="130" width="120" height="60" as="geometry" />
        </mxCell>
        <mxCell id="xbVEstwkcW1VQXTJNAXk-6" style="edgeStyle=orthogonalEdgeStyle;rounded=0;orthogonalLoop=1;jettySize=auto;html=1;" parent="1" source="xbVEstwkcW1VQXTJNAXk-4" target="xbVEstwkcW1VQXTJNAXk-5" edge="1">
          <mxGeometry relative="1" as="geometry" />
        </mxCell>
        <mxCell id="xbVEstwkcW1VQXTJNAXk-8" style="edgeStyle=orthogonalEdgeStyle;rounded=0;orthogonalLoop=1;jettySize=auto;html=1;" parent="1" source="xbVEstwkcW1VQXTJNAXk-4" target="xbVEstwkcW1VQXTJNAXk-7" edge="1">
          <mxGeometry relative="1" as="geometry" />
        </mxCell>
        <mxCell id="HczRDZ3FsVmqrejHdPLE-9" style="edgeStyle=orthogonalEdgeStyle;rounded=0;orthogonalLoop=1;jettySize=auto;html=1;" edge="1" parent="1" source="xbVEstwkcW1VQXTJNAXk-4" target="xbVEstwkcW1VQXTJNAXk-31">
          <mxGeometry relative="1" as="geometry" />
        </mxCell>
        <mxCell id="HczRDZ3FsVmqrejHdPLE-10" value="Assign one of the node" style="edgeLabel;html=1;align=center;verticalAlign=middle;resizable=0;points=[];" vertex="1" connectable="0" parent="HczRDZ3FsVmqrejHdPLE-9">
          <mxGeometry x="-0.2282" y="-2" relative="1" as="geometry">
            <mxPoint x="22" y="26" as="offset" />
          </mxGeometry>
        </mxCell>
        <mxCell id="xbVEstwkcW1VQXTJNAXk-4" value="Oasis Parcel Server" style="rounded=0;whiteSpace=wrap;html=1;" parent="1" vertex="1">
          <mxGeometry x="580" width="120" height="60" as="geometry" />
        </mxCell>
        <mxCell id="xbVEstwkcW1VQXTJNAXk-17" style="edgeStyle=orthogonalEdgeStyle;rounded=0;orthogonalLoop=1;jettySize=auto;html=1;dashed=1;" parent="1" source="xbVEstwkcW1VQXTJNAXk-5" target="xbVEstwkcW1VQXTJNAXk-1" edge="1">
          <mxGeometry relative="1" as="geometry">
            <Array as="points">
              <mxPoint x="510" y="70" />
              <mxPoint x="110" y="70" />
            </Array>
          </mxGeometry>
        </mxCell>
        <mxCell id="xbVEstwkcW1VQXTJNAXk-5" value="Authorise" style="ellipse;whiteSpace=wrap;html=1;" parent="1" vertex="1">
          <mxGeometry x="470" y="120" width="120" height="80" as="geometry" />
        </mxCell>
        <mxCell id="HczRDZ3FsVmqrejHdPLE-12" style="edgeStyle=orthogonalEdgeStyle;rounded=0;orthogonalLoop=1;jettySize=auto;html=1;" edge="1" parent="1" source="xbVEstwkcW1VQXTJNAXk-7" target="xbVEstwkcW1VQXTJNAXk-31">
          <mxGeometry relative="1" as="geometry">
            <Array as="points">
              <mxPoint x="740" y="480" />
            </Array>
          </mxGeometry>
        </mxCell>
        <mxCell id="HczRDZ3FsVmqrejHdPLE-13" value="Pull data" style="edgeLabel;html=1;align=center;verticalAlign=middle;resizable=0;points=[];" vertex="1" connectable="0" parent="HczRDZ3FsVmqrejHdPLE-12">
          <mxGeometry x="-0.1655" y="1" relative="1" as="geometry">
            <mxPoint as="offset" />
          </mxGeometry>
        </mxCell>
        <mxCell id="HczRDZ3FsVmqrejHdPLE-17" style="edgeStyle=orthogonalEdgeStyle;rounded=0;orthogonalLoop=1;jettySize=auto;html=1;endArrow=none;endFill=0;startArrow=classic;startFill=1;" edge="1" parent="1" source="xbVEstwkcW1VQXTJNAXk-7" target="HczRDZ3FsVmqrejHdPLE-16">
          <mxGeometry relative="1" as="geometry">
            <Array as="points">
              <mxPoint x="600" y="160" />
              <mxPoint x="600" y="540" />
              <mxPoint x="260" y="540" />
            </Array>
          </mxGeometry>
        </mxCell>
        <mxCell id="HczRDZ3FsVmqrejHdPLE-18" value="Request Compute Job Result" style="edgeLabel;html=1;align=center;verticalAlign=middle;resizable=0;points=[];" vertex="1" connectable="0" parent="HczRDZ3FsVmqrejHdPLE-17">
          <mxGeometry x="0.6222" y="-2" relative="1" as="geometry">
            <mxPoint as="offset" />
          </mxGeometry>
        </mxCell>
        <mxCell id="xbVEstwkcW1VQXTJNAXk-7" value="Data Storage" style="ellipse;whiteSpace=wrap;html=1;" parent="1" vertex="1">
          <mxGeometry x="680" y="120" width="120" height="80" as="geometry" />
        </mxCell>
        <mxCell id="xbVEstwkcW1VQXTJNAXk-12" style="edgeStyle=orthogonalEdgeStyle;rounded=0;orthogonalLoop=1;jettySize=auto;html=1;" parent="1" source="xbVEstwkcW1VQXTJNAXk-9" target="xbVEstwkcW1VQXTJNAXk-5" edge="1">
          <mxGeometry relative="1" as="geometry" />
        </mxCell>
        <mxCell id="xbVEstwkcW1VQXTJNAXk-9" value="Google Auth" style="rounded=0;whiteSpace=wrap;html=1;fillColor=#f8cecc;strokeColor=#b85450;" parent="1" vertex="1">
          <mxGeometry x="340" y="130" width="120" height="60" as="geometry" />
        </mxCell>
        <mxCell id="xbVEstwkcW1VQXTJNAXk-15" style="edgeStyle=orthogonalEdgeStyle;rounded=0;orthogonalLoop=1;jettySize=auto;html=1;" parent="1" source="xbVEstwkcW1VQXTJNAXk-13" target="xbVEstwkcW1VQXTJNAXk-7" edge="1">
          <mxGeometry relative="1" as="geometry">
            <Array as="points">
              <mxPoint x="710" y="270" />
            </Array>
          </mxGeometry>
        </mxCell>
        <mxCell id="xbVEstwkcW1VQXTJNAXk-29" style="edgeStyle=orthogonalEdgeStyle;rounded=0;orthogonalLoop=1;jettySize=auto;html=1;" parent="1" source="xbVEstwkcW1VQXTJNAXk-13" target="xbVEstwkcW1VQXTJNAXk-24" edge="1">
          <mxGeometry relative="1" as="geometry" />
        </mxCell>
        <mxCell id="xbVEstwkcW1VQXTJNAXk-13" value="AWS Lambda&lt;br&gt;/Akash&lt;br&gt;Any kind of serverless" style="rounded=0;whiteSpace=wrap;html=1;" parent="1" vertex="1">
          <mxGeometry x="200" y="240" width="120" height="60" as="geometry" />
        </mxCell>
        <mxCell id="xbVEstwkcW1VQXTJNAXk-18" value="Authorise Client Identity" style="text;html=1;align=center;verticalAlign=middle;resizable=0;points=[];autosize=1;" parent="1" vertex="1">
          <mxGeometry x="220" y="50" width="140" height="20" as="geometry" />
        </mxCell>
        <mxCell id="xbVEstwkcW1VQXTJNAXk-19" value="Client Identity" style="text;html=1;strokeColor=none;fillColor=none;align=center;verticalAlign=middle;whiteSpace=wrap;rounded=0;" parent="1" vertex="1">
          <mxGeometry x="150" y="300" width="40" height="20" as="geometry" />
        </mxCell>
        <mxCell id="xbVEstwkcW1VQXTJNAXk-21" value="&amp;nbsp;Upload User Data" style="text;html=1;strokeColor=none;fillColor=none;align=center;verticalAlign=middle;whiteSpace=wrap;rounded=0;" parent="1" vertex="1">
          <mxGeometry x="150" y="250" width="40" height="20" as="geometry" />
        </mxCell>
        <mxCell id="xbVEstwkcW1VQXTJNAXk-33" style="edgeStyle=orthogonalEdgeStyle;rounded=0;orthogonalLoop=1;jettySize=auto;html=1;" parent="1" source="xbVEstwkcW1VQXTJNAXk-24" target="xbVEstwkcW1VQXTJNAXk-7" edge="1">
          <mxGeometry relative="1" as="geometry">
            <Array as="points">
              <mxPoint x="780" y="380" />
            </Array>
          </mxGeometry>
        </mxCell>
        <mxCell id="xbVEstwkcW1VQXTJNAXk-24" value="Process Data" style="ellipse;whiteSpace=wrap;html=1;" parent="1" vertex="1">
          <mxGeometry x="200" y="340" width="120" height="80" as="geometry" />
        </mxCell>
        <mxCell id="xbVEstwkcW1VQXTJNAXk-25" value="Data saved to" style="text;html=1;align=center;verticalAlign=middle;resizable=0;points=[];autosize=1;" parent="1" vertex="1">
          <mxGeometry x="375" y="250" width="90" height="20" as="geometry" />
        </mxCell>
        <mxCell id="xbVEstwkcW1VQXTJNAXk-27" value="Request Process data" style="text;html=1;align=center;verticalAlign=middle;resizable=0;points=[];autosize=1;" parent="1" vertex="1">
          <mxGeometry x="60" y="380" width="130" height="20" as="geometry" />
        </mxCell>
        <mxCell id="xbVEstwkcW1VQXTJNAXk-31" value="Docker&lt;br&gt;(Which contain Data Processing Script)" style="ellipse;whiteSpace=wrap;html=1;" parent="1" vertex="1">
          <mxGeometry x="610" y="440" width="120" height="80" as="geometry" />
        </mxCell>
        <mxCell id="xbVEstwkcW1VQXTJNAXk-34" value="Request Process" style="text;html=1;align=center;verticalAlign=middle;resizable=0;points=[];autosize=1;" parent="1" vertex="1">
          <mxGeometry x="405" y="360" width="110" height="20" as="geometry" />
        </mxCell>
        <mxCell id="xbVEstwkcW1VQXTJNAXk-37" value="Send back all data with that client identity" style="text;html=1;strokeColor=none;fillColor=none;align=center;verticalAlign=middle;whiteSpace=wrap;rounded=0;" parent="1" vertex="1">
          <mxGeometry x="390" y="410" width="270" height="20" as="geometry" />
        </mxCell>
        <mxCell id="xbVEstwkcW1VQXTJNAXk-47" value="" style="endArrow=classic;html=1;dashed=1;entryX=0;entryY=1;entryDx=0;entryDy=0;exitX=0;exitY=1;exitDx=0;exitDy=0;" parent="1" source="xbVEstwkcW1VQXTJNAXk-24" target="xbVEstwkcW1VQXTJNAXk-1" edge="1">
          <mxGeometry width="50" height="50" relative="1" as="geometry">
            <mxPoint x="390" y="300" as="sourcePoint" />
            <mxPoint x="440" y="250" as="targetPoint" />
            <Array as="points">
              <mxPoint x="40" y="420" />
            </Array>
          </mxGeometry>
        </mxCell>
        <mxCell id="xbVEstwkcW1VQXTJNAXk-49" value="&lt;b&gt;&lt;font style=&quot;font-size: 18px&quot;&gt;Frountend App&lt;/font&gt;&lt;/b&gt;" style="text;html=1;strokeColor=none;fillColor=none;align=center;verticalAlign=middle;whiteSpace=wrap;rounded=0;" parent="1" vertex="1">
          <mxGeometry x="30" y="30" width="180" height="20" as="geometry" />
        </mxCell>
        <mxCell id="xbVEstwkcW1VQXTJNAXk-51" value="&lt;font style=&quot;font-size: 18px&quot;&gt;&lt;b&gt;Oasis Parcel Server&lt;br&gt;$ROSE&lt;br&gt;&lt;/b&gt;&lt;/font&gt;" style="text;html=1;strokeColor=none;fillColor=none;align=center;verticalAlign=middle;whiteSpace=wrap;rounded=0;" parent="1" vertex="1">
          <mxGeometry x="525" y="110" width="220" height="20" as="geometry" />
        </mxCell>
        <mxCell id="xbVEstwkcW1VQXTJNAXk-53" value="&lt;font style=&quot;font-size: 18px&quot;&gt;&lt;b&gt;Serverless Parser&lt;/b&gt;&lt;/font&gt;" style="text;html=1;strokeColor=none;fillColor=none;align=center;verticalAlign=middle;whiteSpace=wrap;rounded=0;" parent="1" vertex="1">
          <mxGeometry x="360" y="310" width="100" height="20" as="geometry" />
        </mxCell>
        <mxCell id="HczRDZ3FsVmqrejHdPLE-3" value="" style="verticalLabelPosition=bottom;html=1;verticalAlign=top;align=center;strokeColor=none;fillColor=#00BEF2;shape=mxgraph.azure.computer;pointerEvents=1;" vertex="1" parent="1">
          <mxGeometry x="540" y="570" width="50" height="45" as="geometry" />
        </mxCell>
        <mxCell id="HczRDZ3FsVmqrejHdPLE-4" value="" style="verticalLabelPosition=bottom;html=1;verticalAlign=top;align=center;strokeColor=none;fillColor=#00BEF2;shape=mxgraph.azure.computer;pointerEvents=1;" vertex="1" parent="1">
          <mxGeometry x="615" y="570" width="50" height="45" as="geometry" />
        </mxCell>
        <mxCell id="HczRDZ3FsVmqrejHdPLE-5" value="" style="verticalLabelPosition=bottom;html=1;verticalAlign=top;align=center;strokeColor=none;fillColor=#00BEF2;shape=mxgraph.azure.computer;pointerEvents=1;" vertex="1" parent="1">
          <mxGeometry x="745" y="574.5" width="50" height="45" as="geometry" />
        </mxCell>
        <mxCell id="HczRDZ3FsVmqrejHdPLE-6" value="" style="shape=image;html=1;verticalAlign=top;verticalLabelPosition=bottom;labelBackgroundColor=#ffffff;imageAspect=0;aspect=fixed;image=https://cdn1.iconfinder.com/data/icons/jumpicon-basic-ui-glyph-1/32/-_Dot-More-Option-Menu-128.png" vertex="1" parent="1">
          <mxGeometry x="676" y="565.5" width="54" height="54" as="geometry" />
        </mxCell>
        <mxCell id="HczRDZ3FsVmqrejHdPLE-8" value="&lt;b&gt;&lt;font style=&quot;font-size: 23px&quot;&gt;Oasis Paratime&lt;/font&gt;&lt;/b&gt;" style="text;html=1;strokeColor=none;fillColor=none;align=center;verticalAlign=middle;whiteSpace=wrap;rounded=0;" vertex="1" parent="1">
          <mxGeometry x="560" y="320" width="40" height="20" as="geometry" />
        </mxCell>
        <mxCell id="HczRDZ3FsVmqrejHdPLE-19" style="edgeStyle=orthogonalEdgeStyle;rounded=0;orthogonalLoop=1;jettySize=auto;html=1;startArrow=classic;startFill=1;endArrow=none;endFill=0;" edge="1" parent="1" source="HczRDZ3FsVmqrejHdPLE-16" target="xbVEstwkcW1VQXTJNAXk-1">
          <mxGeometry relative="1" as="geometry" />
        </mxCell>
        <mxCell id="HczRDZ3FsVmqrejHdPLE-20" value="Request Compute Result" style="edgeLabel;html=1;align=center;verticalAlign=middle;resizable=0;points=[];" vertex="1" connectable="0" parent="HczRDZ3FsVmqrejHdPLE-19">
          <mxGeometry x="-0.5795" y="4" relative="1" as="geometry">
            <mxPoint as="offset" />
          </mxGeometry>
        </mxCell>
        <mxCell id="HczRDZ3FsVmqrejHdPLE-16" value="Request data" style="ellipse;whiteSpace=wrap;html=1;" vertex="1" parent="1">
          <mxGeometry x="200" y="450" width="120" height="80" as="geometry" />
        </mxCell>
      </root>
    </mxGraphModel>
  </diagram>
</mxfile>
